# xmcd CD database file
#
# Track frame offsets:
#	150
#	11760
#	29572
#	46780
#	62600
#	76717
#	91217
#	107440
#	119887
#	133525
#	149812
#	167445
#
# Disc length: 2411 seconds
#
# Revision: 0
# Processed by: cddbd v1.5.1PL2 Copyright (c) Steve Scherf et al.
# Submitted via: CDex 1.51
#
DISCID=9b09690c
DTITLE=Various Artist - Today's Hot Country Hits - Disc 1
DYEAR=1994
DGENRE=Country
TTITLE0=Whatcha Gonna Do With A Cowboy
TTITLE1=Someday Soon
TTITLE2=Love On Arrival
TTITLE3=Only Here For A Little While
TTITLE4=If You Could Only See Me Now
TTITLE5=American Boy
TTITLE6=My Arms Stay Open All Night
TTITLE7=Holdin' A Good Hand
TTITLE8=Honky Tonk Blues
TTITLE9=Black Coffee
TTITLE10=Island
TTITLE11=Baby's Got Her Blue Jeans On
EXTD=YEAR: 1994
EXTT0=
EXTT1=
EXTT2=
EXTT3=
EXTT4=
EXTT5=
EXTT6=
EXTT7=
EXTT8=
EXTT9=
EXTT10=
EXTT11=
PLAYORDER=
